<svg viewBox="0 0 1067 1067" xmlns="http://www.w3.org/2000/svg">
    <g transform="matrix(7.4072,0,0,7.4072,0,0.0148063)">
        <path d="M122.732,122.729L101.084,122.729L101.084,85.166C101.084,74.083 96.372,70.665 90.295,70.665C83.872,70.665 77.574,75.5 77.574,85.442L77.574,122.729L55.925,122.729L55.925,53.955L76.744,53.955L76.744,63.483L77.021,63.483C79.116,59.249 86.428,52.021 97.598,52.021C109.678,52.021 122.732,59.187 122.732,80.194L122.732,122.729ZM32.095,44.373C25.202,44.373 19.614,39.126 19.614,31.947C19.614,24.767 25.202,19.514 32.095,19.514C38.989,19.514 44.577,24.767 44.577,31.947C44.577,39.126 38.989,44.373 32.095,44.373ZM42.92,122.676L21.271,122.676L21.271,53.902L42.92,53.902L42.92,122.676ZM133.374,0L10.63,0C4.759,0 0,4.76 0,10.63L0,133.37C0,139.241 4.759,144 10.63,144L133.374,144C139.245,144 144.004,139.241 144.004,133.37L144.004,10.63C144.004,4.76 139.245,0 133.374,0Z"/>
    </g>
</svg>
